<svg class="rich-terminal" viewBox="0 0 994 635.5999999999999" xmlns="http://www.w3.org/2000/svg">
    <!-- Generated with Rich https://www.textualize.io -->
    <style>

    @font-face {
        font-family: "Fira Code";
        src: local("FiraCode-Regular"),
                url("https://cdnjs.cloudflare.com/ajax/libs/firacode/6.2.0/woff2/FiraCode-Regular.woff2") format("woff2"),
                url("https://cdnjs.cloudflare.com/ajax/libs/firacode/6.2.0/woff/FiraCode-Regular.woff") format("woff");
        font-style: normal;
        font-weight: 400;
    }
    @font-face {
        font-family: "Fira Code";
        src: local("FiraCode-Bold"),
                url("https://cdnjs.cloudflare.com/ajax/libs/firacode/6.2.0/woff2/FiraCode-Bold.woff2") format("woff2"),
                url("https://cdnjs.cloudflare.com/ajax/libs/firacode/6.2.0/woff/FiraCode-Bold.woff") format("woff");
        font-style: bold;
        font-weight: 700;
    }

    .terminal-205663195-matrix {
        font-family: Fira Code, monospace;
        font-size: 20px;
        line-height: 24.4px;
        font-variant-east-asian: full-width;
    }

    .terminal-205663195-title {
        font-size: 18px;
        font-weight: bold;
        font-family: arial;
    }

    .terminal-205663195-r1 { fill: #c5c8c6 }
.terminal-205663195-r2 { fill: #e0e0e0 }
.terminal-205663195-r3 { fill: #c5c6c7 }
.terminal-205663195-r4 { fill: #a0a3a6 }
.terminal-205663195-r5 { fill: #f4005f;font-weight: bold }
.terminal-205663195-r6 { fill: #fd971f;font-weight: bold }
.terminal-205663195-r7 { fill: #455446 }
.terminal-205663195-r8 { fill: #e0e0e0;font-weight: bold }
.terminal-205663195-r9 { fill: #121212 }
.terminal-205663195-r10 { fill: #7c827c }
    </style>

    <defs>
    <clipPath id="terminal-205663195-clip-terminal">
      <rect x="0" y="0" width="975.0" height="584.5999999999999" />
    </clipPath>
    <clipPath id="terminal-205663195-line-0">
    <rect x="0" y="1.5" width="976" height="24.65"/>
            </clipPath>
<clipPath id="terminal-205663195-line-1">
    <rect x="0" y="25.9" width="976" height="24.65"/>
            </clipPath>
<clipPath id="terminal-205663195-line-2">
    <rect x="0" y="50.3" width="976" height="24.65"/>
            </clipPath>
<clipPath id="terminal-205663195-line-3">
    <rect x="0" y="74.7" width="976" height="24.65"/>
            </clipPath>
<clipPath id="terminal-205663195-line-4">
    <rect x="0" y="99.1" width="976" height="24.65"/>
            </clipPath>
<clipPath id="terminal-205663195-line-5">
    <rect x="0" y="123.5" width="976" height="24.65"/>
            </clipPath>
<clipPath id="terminal-205663195-line-6">
    <rect x="0" y="147.9" width="976" height="24.65"/>
            </clipPath>
<clipPath id="terminal-205663195-line-7">
    <rect x="0" y="172.3" width="976" height="24.65"/>
            </clipPath>
<clipPath id="terminal-205663195-line-8">
    <rect x="0" y="196.7" width="976" height="24.65"/>
            </clipPath>
<clipPath id="terminal-205663195-line-9">
    <rect x="0" y="221.1" width="976" height="24.65"/>
            </clipPath>
<clipPath id="terminal-205663195-line-10">
    <rect x="0" y="245.5" width="976" height="24.65"/>
            </clipPath>
<clipPath id="terminal-205663195-line-11">
    <rect x="0" y="269.9" width="976" height="24.65"/>
            </clipPath>
<clipPath id="terminal-205663195-line-12">
    <rect x="0" y="294.3" width="976" height="24.65"/>
            </clipPath>
<clipPath id="terminal-205663195-line-13">
    <rect x="0" y="318.7" width="976" height="24.65"/>
            </clipPath>
<clipPath id="terminal-205663195-line-14">
    <rect x="0" y="343.1" width="976" height="24.65"/>
            </clipPath>
<clipPath id="terminal-205663195-line-15">
    <rect x="0" y="367.5" width="976" height="24.65"/>
            </clipPath>
<clipPath id="terminal-205663195-line-16">
    <rect x="0" y="391.9" width="976" height="24.65"/>
            </clipPath>
<clipPath id="terminal-205663195-line-17">
    <rect x="0" y="416.3" width="976" height="24.65"/>
            </clipPath>
<clipPath id="terminal-205663195-line-18">
    <rect x="0" y="440.7" width="976" height="24.65"/>
            </clipPath>
<clipPath id="terminal-205663195-line-19">
    <rect x="0" y="465.1" width="976" height="24.65"/>
            </clipPath>
<clipPath id="terminal-205663195-line-20">
    <rect x="0" y="489.5" width="976" height="24.65"/>
            </clipPath>
<clipPath id="terminal-205663195-line-21">
    <rect x="0" y="513.9" width="976" height="24.65"/>
            </clipPath>
<clipPath id="terminal-205663195-line-22">
    <rect x="0" y="538.3" width="976" height="24.65"/>
            </clipPath>
    </defs>

    <rect fill="#292929" stroke="rgba(255,255,255,0.35)" stroke-width="1" x="1" y="1" width="992" height="633.6" rx="8"/><text class="terminal-205663195-title" fill="#c5c8c6" text-anchor="middle" x="496" y="27">Monicraft</text>
            <g transform="translate(26,22)">
            <circle cx="0" cy="0" r="7" fill="#ff5f57"/>
            <circle cx="22" cy="0" r="7" fill="#febc2e"/>
            <circle cx="44" cy="0" r="7" fill="#28c840"/>
            </g>
        
    <g transform="translate(9, 41)" clip-path="url(#terminal-205663195-clip-terminal)">
    <rect fill="#242f38" x="0" y="1.5" width="12.2" height="24.65" shape-rendering="crispEdges"/><rect fill="#242f38" x="12.2" y="1.5" width="73.2" height="24.65" shape-rendering="crispEdges"/><rect fill="#242f38" x="85.4" y="1.5" width="12.2" height="24.65" shape-rendering="crispEdges"/><rect fill="#242f38" x="97.6" y="1.5" width="756.4" height="24.65" shape-rendering="crispEdges"/><rect fill="#2c363f" x="854" y="1.5" width="12.2" height="24.65" shape-rendering="crispEdges"/><rect fill="#2c363f" x="866.2" y="1.5" width="97.6" height="24.65" shape-rendering="crispEdges"/><rect fill="#2c363f" x="963.8" y="1.5" width="12.2" height="24.65" shape-rendering="crispEdges"/><rect fill="#242f38" x="0" y="25.9" width="12.2" height="24.65" shape-rendering="crispEdges"/><rect fill="#242f38" x="12.2" y="25.9" width="0" height="24.65" shape-rendering="crispEdges"/><rect fill="#242f38" x="12.2" y="25.9" width="73.2" height="24.65" shape-rendering="crispEdges"/><rect fill="#242f38" x="85.4" y="25.9" width="12.2" height="24.65" shape-rendering="crispEdges"/><rect fill="#242f38" x="97.6" y="25.9" width="134.2" height="24.65" shape-rendering="crispEdges"/><rect fill="#242f38" x="231.8" y="25.9" width="109.8" height="24.65" shape-rendering="crispEdges"/><rect fill="#242f38" x="341.6" y="25.9" width="36.6" height="24.65" shape-rendering="crispEdges"/><rect fill="#242f38" x="378.2" y="25.9" width="329.4" height="24.65" shape-rendering="crispEdges"/><rect fill="#242f38" x="707.6" y="25.9" width="146.4" height="24.65" shape-rendering="crispEdges"/><rect fill="#2c363f" x="854" y="25.9" width="12.2" height="24.65" shape-rendering="crispEdges"/><rect fill="#2c363f" x="866.2" y="25.9" width="97.6" height="24.65" shape-rendering="crispEdges"/><rect fill="#2c363f" x="963.8" y="25.9" width="12.2" height="24.65" shape-rendering="crispEdges"/><rect fill="#242f38" x="0" y="50.3" width="12.2" height="24.65" shape-rendering="crispEdges"/><rect fill="#242f38" x="12.2" y="50.3" width="73.2" height="24.65" shape-rendering="crispEdges"/><rect fill="#242f38" x="85.4" y="50.3" width="12.2" height="24.65" shape-rendering="crispEdges"/><rect fill="#242f38" x="97.6" y="50.3" width="756.4" height="24.65" shape-rendering="crispEdges"/><rect fill="#2c363f" x="854" y="50.3" width="12.2" height="24.65" shape-rendering="crispEdges"/><rect fill="#2c363f" x="866.2" y="50.3" width="97.6" height="24.65" shape-rendering="crispEdges"/><rect fill="#2c363f" x="963.8" y="50.3" width="12.2" height="24.65" shape-rendering="crispEdges"/><rect fill="#232e24" x="0" y="74.7" width="195.2" height="24.65" shape-rendering="crispEdges"/><rect fill="#b4cfb6" x="195.2" y="74.7" width="780.8" height="24.65" shape-rendering="crispEdges"/><rect fill="#232e24" x="0" y="99.1" width="195.2" height="24.65" shape-rendering="crispEdges"/><rect fill="#b4cfb6" x="195.2" y="99.1" width="12.2" height="24.65" shape-rendering="crispEdges"/><rect fill="#b4cfb6" x="207.4" y="99.1" width="573.4" height="24.65" shape-rendering="crispEdges"/><rect fill="#b4cfb6" x="780.8" y="99.1" width="36.6" height="24.65" shape-rendering="crispEdges"/><rect fill="#b4cfb6" x="817.4" y="99.1" width="146.4" height="24.65" shape-rendering="crispEdges"/><rect fill="#b4cfb6" x="963.8" y="99.1" width="12.2" height="24.65" shape-rendering="crispEdges"/><rect fill="#232e24" x="0" y="123.5" width="195.2" height="24.65" shape-rendering="crispEdges"/><rect fill="#b4cfb6" x="195.2" y="123.5" width="12.2" height="24.65" shape-rendering="crispEdges"/><rect fill="#b4cfb6" x="207.4" y="123.5" width="756.4" height="24.65" shape-rendering="crispEdges"/><rect fill="#b4cfb6" x="963.8" y="123.5" width="12.2" height="24.65" shape-rendering="crispEdges"/><rect fill="#232e24" x="0" y="147.9" width="195.2" height="24.65" shape-rendering="crispEdges"/><rect fill="#b4cfb6" x="195.2" y="147.9" width="12.2" height="24.65" shape-rendering="crispEdges"/><rect fill="#b4cfb6" x="207.4" y="147.9" width="756.4" height="24.65" shape-rendering="crispEdges"/><rect fill="#b4cfb6" x="963.8" y="147.9" width="12.2" height="24.65" shape-rendering="crispEdges"/><rect fill="#232e24" x="0" y="172.3" width="195.2" height="24.65" shape-rendering="crispEdges"/><rect fill="#b4cfb6" x="195.2" y="172.3" width="12.2" height="24.65" shape-rendering="crispEdges"/><rect fill="#b4cfb6" x="207.4" y="172.3" width="756.4" height="24.65" shape-rendering="crispEdges"/><rect fill="#b4cfb6" x="963.8" y="172.3" width="12.2" height="24.65" shape-rendering="crispEdges"/><rect fill="#232e24" x="0" y="196.7" width="61" height="24.65" shape-rendering="crispEdges"/><rect fill="#232e24" x="61" y="196.7" width="12.2" height="24.65" shape-rendering="crispEdges"/><rect fill="#232e24" x="73.2" y="196.7" width="122" height="24.65" shape-rendering="crispEdges"/><rect fill="#b4cfb6" x="195.2" y="196.7" width="12.2" height="24.65" shape-rendering="crispEdges"/><rect fill="#b4cfb6" x="207.4" y="196.7" width="756.4" height="24.65" shape-rendering="crispEdges"/><rect fill="#b4cfb6" x="963.8" y="196.7" width="12.2" height="24.65" shape-rendering="crispEdges"/><rect fill="#232e24" x="0" y="221.1" width="61" height="24.65" shape-rendering="crispEdges"/><rect fill="#232e24" x="61" y="221.1" width="12.2" height="24.65" shape-rendering="crispEdges"/><rect fill="#3a473b" x="73.2" y="221.1" width="122" height="24.65" shape-rendering="crispEdges"/><rect fill="#b4cfb6" x="195.2" y="221.1" width="12.2" height="24.65" shape-rendering="crispEdges"/><rect fill="#b4cfb6" x="207.4" y="221.1" width="756.4" height="24.65" shape-rendering="crispEdges"/><rect fill="#b4cfb6" x="963.8" y="221.1" width="12.2" height="24.65" shape-rendering="crispEdges"/><rect fill="#232e24" x="0" y="245.5" width="61" height="24.65" shape-rendering="crispEdges"/><rect fill="#232e24" x="61" y="245.5" width="12.2" height="24.65" shape-rendering="crispEdges"/><rect fill="#3a473b" x="73.2" y="245.5" width="122" height="24.65" shape-rendering="crispEdges"/><rect fill="#b4cfb6" x="195.2" y="245.5" width="12.2" height="24.65" shape-rendering="crispEdges"/><rect fill="#b4cfb6" x="207.4" y="245.5" width="756.4" height="24.65" shape-rendering="crispEdges"/><rect fill="#b4cfb6" x="963.8" y="245.5" width="12.2" height="24.65" shape-rendering="crispEdges"/><rect fill="#232e24" x="0" y="269.9" width="61" height="24.65" shape-rendering="crispEdges"/><rect fill="#232e24" x="61" y="269.9" width="12.2" height="24.65" shape-rendering="crispEdges"/><rect fill="#3a473b" x="73.2" y="269.9" width="122" height="24.65" shape-rendering="crispEdges"/><rect fill="#b4cfb6" x="195.2" y="269.9" width="12.2" height="24.65" shape-rendering="crispEdges"/><rect fill="#b4cfb6" x="207.4" y="269.9" width="756.4" height="24.65" shape-rendering="crispEdges"/><rect fill="#b4cfb6" x="963.8" y="269.9" width="12.2" height="24.65" shape-rendering="crispEdges"/><rect fill="#232e24" x="0" y="294.3" width="61" height="24.65" shape-rendering="crispEdges"/><rect fill="#232e24" x="61" y="294.3" width="12.2" height="24.65" shape-rendering="crispEdges"/><rect fill="#3a473b" x="73.2" y="294.3" width="36.6" height="24.65" shape-rendering="crispEdges"/><rect fill="#3a473b" x="109.8" y="294.3" width="85.4" height="24.65" shape-rendering="crispEdges"/><rect fill="#b4cfb6" x="195.2" y="294.3" width="12.2" height="24.65" shape-rendering="crispEdges"/><rect fill="#b4cfb6" x="207.4" y="294.3" width="756.4" height="24.65" shape-rendering="crispEdges"/><rect fill="#b4cfb6" x="963.8" y="294.3" width="12.2" height="24.65" shape-rendering="crispEdges"/><rect fill="#232e24" x="0" y="318.7" width="61" height="24.65" shape-rendering="crispEdges"/><rect fill="#232e24" x="61" y="318.7" width="12.2" height="24.65" shape-rendering="crispEdges"/><rect fill="#3a473b" x="73.2" y="318.7" width="122" height="24.65" shape-rendering="crispEdges"/><rect fill="#b4cfb6" x="195.2" y="318.7" width="12.2" height="24.65" shape-rendering="crispEdges"/><rect fill="#b4cfb6" x="207.4" y="318.7" width="756.4" height="24.65" shape-rendering="crispEdges"/><rect fill="#b4cfb6" x="963.8" y="318.7" width="12.2" height="24.65" shape-rendering="crispEdges"/><rect fill="#232e24" x="0" y="343.1" width="61" height="24.65" shape-rendering="crispEdges"/><rect fill="#232e24" x="61" y="343.1" width="12.2" height="24.65" shape-rendering="crispEdges"/><rect fill="#3a473b" x="73.2" y="343.1" width="122" height="24.65" shape-rendering="crispEdges"/><rect fill="#b4cfb6" x="195.2" y="343.1" width="12.2" height="24.65" shape-rendering="crispEdges"/><rect fill="#b4cfb6" x="207.4" y="343.1" width="756.4" height="24.65" shape-rendering="crispEdges"/><rect fill="#b4cfb6" x="963.8" y="343.1" width="12.2" height="24.65" shape-rendering="crispEdges"/><rect fill="#232e24" x="0" y="367.5" width="61" height="24.65" shape-rendering="crispEdges"/><rect fill="#232e24" x="61" y="367.5" width="12.2" height="24.65" shape-rendering="crispEdges"/><rect fill="#3a473b" x="73.2" y="367.5" width="122" height="24.65" shape-rendering="crispEdges"/><rect fill="#b4cfb6" x="195.2" y="367.5" width="12.2" height="24.65" shape-rendering="crispEdges"/><rect fill="#b4cfb6" x="207.4" y="367.5" width="756.4" height="24.65" shape-rendering="crispEdges"/><rect fill="#b4cfb6" x="963.8" y="367.5" width="12.2" height="24.65" shape-rendering="crispEdges"/><rect fill="#232e24" x="0" y="391.9" width="61" height="24.65" shape-rendering="crispEdges"/><rect fill="#232e24" x="61" y="391.9" width="12.2" height="24.65" shape-rendering="crispEdges"/><rect fill="#232e24" x="73.2" y="391.9" width="122" height="24.65" shape-rendering="crispEdges"/><rect fill="#b4cfb6" x="195.2" y="391.9" width="12.2" height="24.65" shape-rendering="crispEdges"/><rect fill="#b4cfb6" x="207.4" y="391.9" width="756.4" height="24.65" shape-rendering="crispEdges"/><rect fill="#b4cfb6" x="963.8" y="391.9" width="12.2" height="24.65" shape-rendering="crispEdges"/><rect fill="#232e24" x="0" y="416.3" width="195.2" height="24.65" shape-rendering="crispEdges"/><rect fill="#b4cfb6" x="195.2" y="416.3" width="12.2" height="24.65" shape-rendering="crispEdges"/><rect fill="#b4cfb6" x="207.4" y="416.3" width="756.4" height="24.65" shape-rendering="crispEdges"/><rect fill="#b4cfb6" x="963.8" y="416.3" width="12.2" height="24.65" shape-rendering="crispEdges"/><rect fill="#232e24" x="0" y="440.7" width="195.2" height="24.65" shape-rendering="crispEdges"/><rect fill="#b4cfb6" x="195.2" y="440.7" width="12.2" height="24.65" shape-rendering="crispEdges"/><rect fill="#b4cfb6" x="207.4" y="440.7" width="756.4" height="24.65" shape-rendering="crispEdges"/><rect fill="#b4cfb6" x="963.8" y="440.7" width="12.2" height="24.65" shape-rendering="crispEdges"/><rect fill="#232e24" x="0" y="465.1" width="195.2" height="24.65" shape-rendering="crispEdges"/><rect fill="#b4cfb6" x="195.2" y="465.1" width="12.2" height="24.65" shape-rendering="crispEdges"/><rect fill="#b4cfb6" x="207.4" y="465.1" width="756.4" height="24.65" shape-rendering="crispEdges"/><rect fill="#b4cfb6" x="963.8" y="465.1" width="12.2" height="24.65" shape-rendering="crispEdges"/><rect fill="#232e24" x="0" y="489.5" width="195.2" height="24.65" shape-rendering="crispEdges"/><rect fill="#b4cfb6" x="195.2" y="489.5" width="780.8" height="24.65" shape-rendering="crispEdges"/><rect fill="#232e24" x="0" y="513.9" width="195.2" height="24.65" shape-rendering="crispEdges"/><rect fill="#121212" x="195.2" y="513.9" width="12.2" height="24.65" shape-rendering="crispEdges"/><rect fill="#121212" x="207.4" y="513.9" width="61" height="24.65" shape-rendering="crispEdges"/><rect fill="#121212" x="268.4" y="513.9" width="12.2" height="24.65" shape-rendering="crispEdges"/><rect fill="#2c362d" x="280.6" y="513.9" width="695.4" height="24.65" shape-rendering="crispEdges"/><rect fill="#232e24" x="0" y="538.3" width="61" height="24.65" shape-rendering="crispEdges"/><rect fill="#232e24" x="61" y="538.3" width="12.2" height="24.65" shape-rendering="crispEdges"/><rect fill="#232e24" x="73.2" y="538.3" width="122" height="24.65" shape-rendering="crispEdges"/><rect fill="#121212" x="195.2" y="538.3" width="12.2" height="24.65" shape-rendering="crispEdges"/><rect fill="#3a473b" x="207.4" y="538.3" width="12.2" height="24.65" shape-rendering="crispEdges"/><rect fill="#3a473b" x="219.6" y="538.3" width="36.6" height="24.65" shape-rendering="crispEdges"/><rect fill="#3a473b" x="256.2" y="538.3" width="12.2" height="24.65" shape-rendering="crispEdges"/><rect fill="#121212" x="268.4" y="538.3" width="12.2" height="24.65" shape-rendering="crispEdges"/><rect fill="#2c362d" x="280.6" y="538.3" width="12.2" height="24.65" shape-rendering="crispEdges"/><rect fill="#e0e0e0" x="292.8" y="538.3" width="12.2" height="24.65" shape-rendering="crispEdges"/><rect fill="#2c362d" x="305" y="538.3" width="622.2" height="24.65" shape-rendering="crispEdges"/><rect fill="#2c362d" x="927.2" y="538.3" width="48.8" height="24.65" shape-rendering="crispEdges"/><rect fill="#232e24" x="0" y="562.7" width="61" height="24.65" shape-rendering="crispEdges"/><rect fill="#232e24" x="61" y="562.7" width="12.2" height="24.65" shape-rendering="crispEdges"/><rect fill="#3a473b" x="73.2" y="562.7" width="122" height="24.65" shape-rendering="crispEdges"/><rect fill="#121212" x="195.2" y="562.7" width="12.2" height="24.65" shape-rendering="crispEdges"/><rect fill="#121212" x="207.4" y="562.7" width="61" height="24.65" shape-rendering="crispEdges"/><rect fill="#121212" x="268.4" y="562.7" width="12.2" height="24.65" shape-rendering="crispEdges"/><rect fill="#2c362d" x="280.6" y="562.7" width="695.4" height="24.65" shape-rendering="crispEdges"/>
    <g class="terminal-205663195-matrix">
    <text class="terminal-205663195-r1" x="976" y="20" textLength="12.2" clip-path="url(#terminal-205663195-line-0)">
</text><text class="terminal-205663195-r2" x="231.8" y="44.4" textLength="109.8" clip-path="url(#terminal-205663195-line-1)">Monicraft</text><text class="terminal-205663195-r4" x="341.6" y="44.4" textLength="36.6" clip-path="url(#terminal-205663195-line-1)">&#160;—&#160;</text><text class="terminal-205663195-r4" x="378.2" y="44.4" textLength="329.4" clip-path="url(#terminal-205663195-line-1)">Console&#160;&amp;&#160;Server&#160;Monitoring</text><text class="terminal-205663195-r3" x="866.2" y="44.4" textLength="97.6" clip-path="url(#terminal-205663195-line-1)">11:53:56</text><text class="terminal-205663195-r1" x="976" y="44.4" textLength="12.2" clip-path="url(#terminal-205663195-line-1)">
</text><text class="terminal-205663195-r1" x="976" y="68.8" textLength="12.2" clip-path="url(#terminal-205663195-line-2)">
</text><text class="terminal-205663195-r1" x="976" y="93.2" textLength="12.2" clip-path="url(#terminal-205663195-line-3)">
</text><text class="terminal-205663195-r5" x="207.4" y="117.6" textLength="573.4" clip-path="url(#terminal-205663195-line-4)">No&#160;connection&#160;with&#160;the&#160;server.&#160;Establishing&#160;now</text><text class="terminal-205663195-r6" x="780.8" y="117.6" textLength="36.6" clip-path="url(#terminal-205663195-line-4)">...</text><text class="terminal-205663195-r1" x="976" y="117.6" textLength="12.2" clip-path="url(#terminal-205663195-line-4)">
</text><text class="terminal-205663195-r1" x="976" y="142" textLength="12.2" clip-path="url(#terminal-205663195-line-5)">
</text><text class="terminal-205663195-r1" x="976" y="166.4" textLength="12.2" clip-path="url(#terminal-205663195-line-6)">
</text><text class="terminal-205663195-r1" x="976" y="190.8" textLength="12.2" clip-path="url(#terminal-205663195-line-7)">
</text><text class="terminal-205663195-r7" x="61" y="215.2" textLength="12.2" clip-path="url(#terminal-205663195-line-8)">▗</text><text class="terminal-205663195-r7" x="73.2" y="215.2" textLength="122" clip-path="url(#terminal-205663195-line-8)">▄▄▄▄▄▄▄▄▄▄</text><text class="terminal-205663195-r1" x="976" y="215.2" textLength="12.2" clip-path="url(#terminal-205663195-line-8)">
</text><text class="terminal-205663195-r7" x="61" y="239.6" textLength="12.2" clip-path="url(#terminal-205663195-line-9)">▐</text><text class="terminal-205663195-r1" x="976" y="239.6" textLength="12.2" clip-path="url(#terminal-205663195-line-9)">
</text><text class="terminal-205663195-r7" x="61" y="264" textLength="12.2" clip-path="url(#terminal-205663195-line-10)">▐</text><text class="terminal-205663195-r1" x="976" y="264" textLength="12.2" clip-path="url(#terminal-205663195-line-10)">
</text><text class="terminal-205663195-r7" x="61" y="288.4" textLength="12.2" clip-path="url(#terminal-205663195-line-11)">▐</text><text class="terminal-205663195-r1" x="976" y="288.4" textLength="12.2" clip-path="url(#terminal-205663195-line-11)">
</text><text class="terminal-205663195-r7" x="61" y="312.8" textLength="12.2" clip-path="url(#terminal-205663195-line-12)">▐</text><text class="terminal-205663195-r2" x="109.8" y="312.8" textLength="85.4" clip-path="url(#terminal-205663195-line-12)">Connect</text><text class="terminal-205663195-r1" x="976" y="312.8" textLength="12.2" clip-path="url(#terminal-205663195-line-12)">
</text><text class="terminal-205663195-r7" x="61" y="337.2" textLength="12.2" clip-path="url(#terminal-205663195-line-13)">▐</text><text class="terminal-205663195-r1" x="976" y="337.2" textLength="12.2" clip-path="url(#terminal-205663195-line-13)">
</text><text class="terminal-205663195-r7" x="61" y="361.6" textLength="12.2" clip-path="url(#terminal-205663195-line-14)">▐</text><text class="terminal-205663195-r1" x="976" y="361.6" textLength="12.2" clip-path="url(#terminal-205663195-line-14)">
</text><text class="terminal-205663195-r7" x="61" y="386" textLength="12.2" clip-path="url(#terminal-205663195-line-15)">▐</text><text class="terminal-205663195-r1" x="976" y="386" textLength="12.2" clip-path="url(#terminal-205663195-line-15)">
</text><text class="terminal-205663195-r7" x="61" y="410.4" textLength="12.2" clip-path="url(#terminal-205663195-line-16)">▝</text><text class="terminal-205663195-r7" x="73.2" y="410.4" textLength="122" clip-path="url(#terminal-205663195-line-16)">▀▀▀▀▀▀▀▀▀▀</text><text class="terminal-205663195-r1" x="976" y="410.4" textLength="12.2" clip-path="url(#terminal-205663195-line-16)">
</text><text class="terminal-205663195-r1" x="976" y="434.8" textLength="12.2" clip-path="url(#terminal-205663195-line-17)">
</text><text class="terminal-205663195-r1" x="976" y="459.2" textLength="12.2" clip-path="url(#terminal-205663195-line-18)">
</text><text class="terminal-205663195-r1" x="976" y="483.6" textLength="12.2" clip-path="url(#terminal-205663195-line-19)">
</text><text class="terminal-205663195-r1" x="976" y="508" textLength="12.2" clip-path="url(#terminal-205663195-line-20)">
</text><text class="terminal-205663195-r7" x="195.2" y="532.4" textLength="12.2" clip-path="url(#terminal-205663195-line-21)">▗</text><text class="terminal-205663195-r7" x="207.4" y="532.4" textLength="61" clip-path="url(#terminal-205663195-line-21)">▄▄▄▄▄</text><text class="terminal-205663195-r7" x="268.4" y="532.4" textLength="12.2" clip-path="url(#terminal-205663195-line-21)">▖</text><text class="terminal-205663195-r1" x="976" y="532.4" textLength="12.2" clip-path="url(#terminal-205663195-line-21)">
</text><text class="terminal-205663195-r7" x="61" y="556.8" textLength="12.2" clip-path="url(#terminal-205663195-line-22)">▗</text><text class="terminal-205663195-r7" x="73.2" y="556.8" textLength="122" clip-path="url(#terminal-205663195-line-22)">▄▄▄▄▄▄▄▄▄▄</text><text class="terminal-205663195-r7" x="195.2" y="556.8" textLength="12.2" clip-path="url(#terminal-205663195-line-22)">▐</text><text class="terminal-205663195-r8" x="219.6" y="556.8" textLength="36.6" clip-path="url(#terminal-205663195-line-22)">&#160;✉&#160;</text><text class="terminal-205663195-r7" x="268.4" y="556.8" textLength="12.2" clip-path="url(#terminal-205663195-line-22)">▌</text><text class="terminal-205663195-r9" x="292.8" y="556.8" textLength="12.2" clip-path="url(#terminal-205663195-line-22)">T</text><text class="terminal-205663195-r10" x="305" y="556.8" textLength="622.2" clip-path="url(#terminal-205663195-line-22)">ype&#160;a&#160;minecraft&#160;command&#160;to&#160;send&#160;it&#160;to&#160;the&#160;server...</text><text class="terminal-205663195-r1" x="976" y="556.8" textLength="12.2" clip-path="url(#terminal-205663195-line-22)">
</text><text class="terminal-205663195-r7" x="61" y="581.2" textLength="12.2" clip-path="url(#terminal-205663195-line-23)">▐</text><text class="terminal-205663195-r7" x="195.2" y="581.2" textLength="12.2" clip-path="url(#terminal-205663195-line-23)">▝</text><text class="terminal-205663195-r7" x="207.4" y="581.2" textLength="61" clip-path="url(#terminal-205663195-line-23)">▀▀▀▀▀</text><text class="terminal-205663195-r7" x="268.4" y="581.2" textLength="12.2" clip-path="url(#terminal-205663195-line-23)">▘</text>
    </g>
    </g>
</svg>
